# xmcd
#
# Track frame offsets:
#	150
#	13140
#	26207
#	51457
#	67145
#	82872
#	96765
#	113832
#	128430
#	142465
#	154717
#
# Disc length: 2282 seconds
#
# Revision: 0
# Processed by: cddbd v1.5.2PL0 Copyright (c) Steve Scherf et al.
# Submitted via: EasyCDDAExtractor 15.2.5.1
#
DISCID=9908e80b
DTITLE=Pam Perry - Will Of The Wind
DYEAR=1993
DGENRE=country
TTITLE0=Looks Like Rain
TTITLE1=I Can Love You Better
TTITLE2=Nothing Can Hurt You
TTITLE3=Liar's Moon
TTITLE4=One Good Man
TTITLE5=Bright Lights And Country Music
TTITLE6=Rambler's Soul
TTITLE7=Learnin' The Ropes
TTITLE8=Rockin' The Boat
TTITLE9=A Man After My Own Heart
TTITLE10=The Will Of The Wind
EXTD=
EXTT0=
EXTT1=
EXTT2=
EXTT3=
EXTT4=
EXTT5=
EXTT6=
EXTT7=
EXTT8=
EXTT9=
EXTT10=
PLAYORDER=
